<?xml version="1.0" encoding="utf-8"?>
<!-- Generator: Adobe Illustrator 27.6.1, SVG Export Plug-In . SVG Version: 6.00 Build 0)  -->
<svg version="1.1" id="Layer_1" xmlns="http://www.w3.org/2000/svg" xmlns:xlink="http://www.w3.org/1999/xlink" x="0px" y="0px"
	 viewBox="0 0 800 800" style="enable-background:new 0 0 800 800;" xml:space="preserve">
<g id="SVGRepo_bgCarrier">
</g>
<g id="SVGRepo_tracerCarrier">
</g>
<g id="SVGRepo_iconCarrier">
	<path d="M800,400c0,220.9-179.1,400-400,400S0,620.9,0,400S179.1,0,400,0S800,179.1,800,400z M308.4,412.8L116.6,271.4v264.3
		L308.4,412.8z M166.2,258.2l187.2,138c28,18.3,64.2,18.3,92.2,0l187.1-138H166.2z M617.7,542l-163-104.6
		c-34.9,16.8-75.6,16.8-110.5,0L181,541.9L617.7,542z M682.2,271.4L490.5,412.8l191.7,123V271.4z"/>
</g>
</svg>
