<?xml version="1.0" encoding="utf-8"?>
<!-- Generator: Adobe Illustrator 27.6.1, SVG Export Plug-In . SVG Version: 6.00 Build 0)  -->
<svg version="1.1" id="Layer_1" xmlns="http://www.w3.org/2000/svg" xmlns:xlink="http://www.w3.org/1999/xlink" x="0px" y="0px"
	 viewBox="0 0 800 800" style="enable-background:new 0 0 800 800;" xml:space="preserve">
<g id="SVGRepo_bgCarrier">
</g>
<g id="SVGRepo_tracerCarrier">
</g>
<g>
	<path d="M400,0C179.1,0,0,179.1,0,400s179.1,400,400,400s400-179.1,400-400S620.9,0,400,0z M583,598.5c-39,9.1-110.9,13.2-183,13.3
		l0,0c-72.1,0-144-4.2-183-13.3c-25.2-25.7-20.2-130.3-20.5-177c0-9,0.1-15.5,0.1-23.3v-0.1c0.4-15.5,1.2-36.7,3.4-59
		c1.6,0.5,3.5,1.1,5.3,1.1c14.6,0,28.6-5.6,39-15.8c3.6-3.6,7.2-7.3,9.7-11.8l0,0c2.5,4.4,5.3,8.3,8.9,11.8
		c10.4,10.2,24.5,16,39,15.8c15.1,0,28.9-6.1,38.9-15.8c3.7-3.6,6.8-7.6,9.4-12l0,0c2.5,4.4,5.6,8.5,9.2,12
		c10.4,10.2,24.5,16,39,15.8c0.5,0,1.1,0,1.6,0l0,0c0.5,0,1.1,0,1.6,0c14.6,0,28.6-5.6,39-15.8c3.6-3.6,6.7-7.6,9.2-12
		c2.5,4.4,5.6,8.5,9.4,12c10.1,9.8,23.8,15.8,39,15.8c14.6,0,28.6-5.6,39-15.8c3.6-3.6,6.4-7.3,8.9-11.8l0,0c2.5,4.4,6,8.3,9.7,11.8
		c10.4,10.2,24.5,15.8,39,15.8c1.8,0,3.7-0.5,5.3-1.1c2.2,22.2,3,43.6,3.4,59v0.1c0,7.9,0.1,14.4,0.1,23.3
		C603.2,468.2,608.2,572.8,583,598.5z M640,275.4c0,26-24.4,49-46.6,49c-26.5,0-48.7-22.1-48.7-48.1c0,26.2-21.4,48.1-48,48.1
		c-26.5,0-47.3-22.1-47.3-48.1c0,26.2-22.7,48.1-49.3,48.1h-0.5c-26.5,0-49.3-22.1-49.3-48.1c0,26.2-20.6,48.1-47.3,48.1
		s-48-22.1-48-48.1c0,26.2-22.2,48.1-48.7,48.1c-22.1,0-46.6-22.9-46.6-49v-20.5c0.4-12.5,41.6-59.8,62.5-72.2l0,0
		c18.5-1.6,110.2-2.6,177.5-2.6c67.2,0,112.3,0.4,177.5,2.6c20.9,12.5,62.2,59.8,62.5,72.2v20.5H640z"/>
	<path d="M548.3,422.7C527.5,364,497.4,364,490,364l0,0l0,0c-15.8,0-30,0-47.4,19.1c-13.8-1.4-28.1-2.2-42.5-2.2l0,0
		c-14.4,0-28.8,0.7-42.5,2.2C340,364,326,364.1,310.1,364l0,0l0,0c-7.6,0-37.4,0-58.4,58.7l-22.4,80.5
		c-16.7,59.9,5.3,61.3,32.8,61.4c40.7-1.6,63.1-31,63.1-60.5c22.4,3.7,48.7,5.5,75,5.5l0,0c26.3,0,52.4-1.8,75-5.5
		c0,29.5,22.4,59,63.1,60.5c27.4,0,49.3-1.6,32.8-61.4L548.3,422.7z M422.4,462.3v24.4c0,1.2-11.3,0.7-22.4,0.1l0,0
		c-11.3,0.5-22.4,1-22.4-0.1v-24.4l-28,1.1c7.7-13.9,50.4-53.2,50.4-53.3l0,0l0,0l0,0l0,0c0,0,42.7,39.2,50.4,53.3L422.4,462.3z"/>
</g>
</svg>
